<svg width="553" height="52" viewBox="0 0 553 52" fill="none" xmlns="http://www.w3.org/2000/svg">
<path d="M41.792 46.608C39.968 48.096 37.592 49.344 34.664 50.352C31.736 51.36 28.784 51.864 25.808 51.864C21.344 51.864 17.192 50.832 13.352 48.768C9.512 46.704 6.416 43.728 4.064 39.84C1.76 35.952 0.608 31.392 0.608 26.16C0.608 21.264 1.664 16.872 3.776 12.984C5.936 9.096 8.984 6.072 12.92 3.912C16.904 1.704 21.536 0.599997 26.816 0.599997C32.432 0.599997 37.424 1.824 41.792 4.272V12.264C40.304 9.624 38.144 7.536 35.312 6C32.48 4.416 29.456 3.624 26.24 3.624C22.16 3.624 18.608 4.584 15.584 6.504C12.608 8.424 10.328 11.064 8.744 14.424C7.16 17.736 6.368 21.456 6.368 25.584C6.368 30.24 7.256 34.296 9.032 37.752C10.856 41.208 13.304 43.872 16.376 45.744C19.448 47.568 22.88 48.48 26.672 48.48C32.768 48.48 37.808 46.704 41.792 43.152V46.608ZM65.7033 26.808C65.7033 21.72 66.7833 17.184 68.9433 13.2C71.1513 9.216 74.2233 6.12 78.1593 3.912C82.1433 1.704 86.7273 0.599997 91.9113 0.599997C96.2313 0.599997 100.263 1.56 104.007 3.48C107.799 5.352 110.823 8.184 113.079 11.976C115.383 15.768 116.535 20.328 116.535 25.656C116.535 30.744 115.431 35.28 113.223 39.264C111.063 43.248 107.991 46.344 104.007 48.552C100.071 50.76 95.5113 51.864 90.3273 51.864C86.0073 51.864 81.9513 50.928 78.1593 49.056C74.4153 47.136 71.3913 44.28 69.0873 40.488C66.8313 36.696 65.7033 32.136 65.7033 26.808ZM110.775 26.736C110.775 22.368 109.863 18.432 108.039 14.928C106.263 11.376 103.791 8.616 100.623 6.648C97.5033 4.632 93.9753 3.624 90.0393 3.624C86.4393 3.624 83.2233 4.536 80.3913 6.36C77.6073 8.184 75.4233 10.776 73.8393 14.136C72.2553 17.448 71.4633 21.312 71.4633 25.728C71.4633 30.096 72.3513 34.056 74.1273 37.608C75.9513 41.112 78.4233 43.872 81.5433 45.888C84.7113 47.856 88.2633 48.84 92.1993 48.84C95.7993 48.84 98.9913 47.928 101.775 46.104C104.607 44.28 106.815 41.712 108.399 38.4C109.983 35.04 110.775 31.152 110.775 26.736ZM176.321 1.464C175.841 1.56 175.073 2.088 174.017 3.048C172.961 4.008 171.689 5.784 170.201 8.376L157.745 29.76V44.304C157.745 46.752 158.081 48.456 158.753 49.416C159.425 50.376 160.049 50.904 160.625 51H149.681C150.257 50.904 150.881 50.4 151.553 49.488C152.225 48.528 152.561 46.8 152.561 44.304V29.688L140.249 8.304C138.809 5.808 137.561 4.104 136.505 3.192C135.449 2.232 134.609 1.656 133.985 1.464H146.081C144.881 1.704 144.281 2.472 144.281 3.768C144.281 4.2 144.425 4.728 144.713 5.352C145.001 5.928 145.457 6.768 146.081 7.872L156.521 26.232L166.961 8.16C167.777 6.816 168.185 5.448 168.185 4.056C168.185 3.144 167.897 2.52 167.321 2.184C166.793 1.8 166.265 1.56 165.737 1.464H176.321ZM195.226 51C195.226 51.144 195.514 51.048 196.09 50.712C196.666 50.328 197.17 49.608 197.602 48.552C198.082 47.448 198.322 45.864 198.322 43.8V8.448C198.322 6.48 198.082 4.992 197.602 3.984C197.17 2.928 196.666 2.208 196.09 1.824C195.514 1.44 195.226 1.32 195.226 1.464H221.29V8.664C220.426 5.784 217.834 4.344 213.514 4.344H203.506V24.792H215.89C216.85 24.792 217.666 24.648 218.338 24.36C219.01 24.024 219.514 23.688 219.85 23.352C220.186 23.016 220.378 22.8 220.426 22.704V29.688C220.378 29.592 220.186 29.376 219.85 29.04C219.514 28.704 219.01 28.392 218.338 28.104C217.714 27.816 216.922 27.672 215.962 27.672H203.506V48.12H214.738C216.898 48.12 218.746 47.688 220.282 46.824C221.866 45.912 222.994 44.76 223.666 43.368L222.37 51H195.226ZM283.583 8.16C283.583 6.24 283.343 4.8 282.863 3.84C282.431 2.832 281.927 2.16 281.351 1.824C280.775 1.488 280.487 1.368 280.487 1.464H291.935C291.935 1.368 291.647 1.488 291.071 1.824C290.495 2.16 289.967 2.832 289.487 3.84C289.007 4.8 288.767 6.24 288.767 8.16V48.12H300.575C302.735 48.12 304.583 47.688 306.119 46.824C307.703 45.912 308.831 44.76 309.503 43.368L308.207 51H280.487C280.487 51.144 280.775 51.048 281.351 50.712C281.927 50.328 282.431 49.608 282.863 48.552C283.343 47.448 283.583 45.864 283.583 43.8V8.16ZM334.405 8.16C334.405 6.24 334.165 4.8 333.685 3.84C333.253 2.832 332.749 2.16 332.173 1.824C331.597 1.488 331.309 1.368 331.309 1.464H342.757C342.757 1.368 342.469 1.488 341.893 1.824C341.317 2.16 340.789 2.832 340.309 3.84C339.829 4.8 339.589 6.24 339.589 8.16V48.12H351.397C353.557 48.12 355.405 47.688 356.941 46.824C358.525 45.912 359.653 44.76 360.325 43.368L359.029 51H331.309C331.309 51.144 331.597 51.048 332.173 50.712C332.749 50.328 333.253 49.608 333.685 48.552C334.165 47.448 334.405 45.864 334.405 43.8V8.16ZM379.494 26.808C379.494 21.72 380.574 17.184 382.734 13.2C384.942 9.216 388.014 6.12 391.95 3.912C395.934 1.704 400.518 0.599997 405.702 0.599997C410.022 0.599997 414.054 1.56 417.798 3.48C421.59 5.352 424.614 8.184 426.87 11.976C429.174 15.768 430.326 20.328 430.326 25.656C430.326 30.744 429.222 35.28 427.014 39.264C424.854 43.248 421.782 46.344 417.798 48.552C413.862 50.76 409.302 51.864 404.118 51.864C399.798 51.864 395.742 50.928 391.95 49.056C388.206 47.136 385.182 44.28 382.878 40.488C380.622 36.696 379.494 32.136 379.494 26.808ZM424.566 26.736C424.566 22.368 423.654 18.432 421.83 14.928C420.054 11.376 417.582 8.616 414.414 6.648C411.294 4.632 407.766 3.624 403.83 3.624C400.23 3.624 397.014 4.536 394.182 6.36C391.398 8.184 389.214 10.776 387.63 14.136C386.046 17.448 385.254 21.312 385.254 25.728C385.254 30.096 386.142 34.056 387.918 37.608C389.742 41.112 392.214 43.872 395.334 45.888C398.502 47.856 402.054 48.84 405.99 48.84C409.59 48.84 412.782 47.928 415.566 46.104C418.398 44.28 420.606 41.712 422.19 38.4C423.774 35.04 424.566 31.152 424.566 26.736ZM490.112 1.464C489.632 1.56 488.864 2.088 487.808 3.048C486.752 4.008 485.48 5.784 483.992 8.376L471.536 29.76V44.304C471.536 46.752 471.872 48.456 472.544 49.416C473.216 50.376 473.84 50.904 474.416 51H463.472C464.048 50.904 464.672 50.4 465.344 49.488C466.016 48.528 466.352 46.8 466.352 44.304V29.688L454.04 8.304C452.6 5.808 451.352 4.104 450.296 3.192C449.24 2.232 448.4 1.656 447.776 1.464H459.872C458.672 1.704 458.072 2.472 458.072 3.768C458.072 4.2 458.216 4.728 458.504 5.352C458.792 5.928 459.248 6.768 459.872 7.872L470.312 26.232L480.752 8.16C481.568 6.816 481.976 5.448 481.976 4.056C481.976 3.144 481.688 2.52 481.112 2.184C480.584 1.8 480.056 1.56 479.528 1.464H490.112ZM541.273 46.968C536.761 49.656 530.737 51 523.201 51H509.017C509.017 51.144 509.305 51.024 509.881 50.64C510.457 50.208 510.961 49.44 511.393 48.336C511.873 47.232 512.113 45.624 512.113 43.512V8.088C512.113 6.216 511.873 4.8 511.393 3.84C510.961 2.832 510.457 2.16 509.881 1.824C509.305 1.488 509.017 1.368 509.017 1.464H523.129C530.473 1.464 536.281 2.664 540.553 5.064C544.345 7.176 547.273 10.032 549.337 13.632C551.401 17.232 552.433 21.288 552.433 25.8C552.433 30.696 551.449 34.944 549.481 38.544C547.561 42.096 544.825 44.904 541.273 46.968ZM538.465 8.304C536.353 6.912 534.097 5.904 531.697 5.28C529.297 4.656 526.441 4.344 523.129 4.344H517.297V48.12H523.129C527.065 48.12 530.281 47.784 532.777 47.112C535.321 46.44 537.505 45.408 539.329 44.016C541.681 42.192 543.481 39.816 544.729 36.888C546.025 33.912 546.673 30.456 546.673 26.52C546.673 22.344 545.929 18.696 544.441 15.576C543.001 12.408 541.009 9.984 538.465 8.304Z" fill="black"/>
</svg>
