<?xml version="1.0" standalone="no"?>
<!DOCTYPE svg PUBLIC "-//W3C//DTD SVG 20010904//EN"
 "http://www.w3.org/TR/2001/REC-SVG-20010904/DTD/svg10.dtd">
<svg version="1.0" xmlns="http://www.w3.org/2000/svg"
 width="452.000000pt" height="46.000000pt" viewBox="0 0 452.000000 46.000000"
 preserveAspectRatio="xMidYMid meet">

<g transform="translate(0.000000,46.000000) scale(0.100000,-0.100000)"
fill="#000000" stroke="none">
<path d="M134 441 c-148 -67 -175 -279 -50 -388 46 -41 96 -56 169 -51 70 5
120 25 125 51 3 16 1 16 -30 -2 -98 -57 -216 -22 -268 80 -22 43 -27 148 -9
196 13 34 55 80 91 99 59 31 165 8 206 -44 10 -13 12 -11 12 20 0 32 -3 36
-39 46 -59 18 -160 15 -207 -7z"/>
<path d="M686 445 c-87 -31 -141 -121 -140 -231 1 -76 32 -136 92 -178 76 -53
211 -48 291 12 48 36 81 112 81 188 0 135 -90 225 -224 224 -33 -1 -78 -7
-100 -15z m187 -38 c19 -15 45 -43 57 -62 27 -44 38 -146 20 -199 -52 -157
-245 -171 -325 -23 -24 43 -27 57 -24 126 5 90 33 145 90 175 51 25 137 17
182 -17z"/>
<path d="M1143 428 c13 -18 50 -78 81 -134 55 -98 56 -102 56 -178 0 -42 -5
-86 -10 -97 -10 -17 -7 -19 27 -19 l38 0 -3 100 -3 100 52 93 c28 50 65 109
81 130 l29 37 -39 0 c-36 0 -39 -2 -35 -24 3 -15 -12 -53 -47 -115 -29 -50
-54 -91 -55 -91 -10 0 -115 205 -111 216 4 11 -6 14 -40 14 l-45 0 24 -32z"/>
<path d="M1624 438 c13 -18 16 -56 16 -205 0 -100 -4 -193 -10 -207 l-10 -26
119 0 119 0 4 30 c4 29 4 29 -15 12 -14 -13 -37 -17 -91 -17 l-71 0 0 100 0
100 57 3 c32 2 67 -2 78 -8 17 -9 20 -8 20 12 0 23 -2 23 -80 19 l-81 -3 3 93
3 94 53 3 c32 2 64 -3 82 -12 29 -14 30 -14 30 10 l0 24 -121 0 -120 0 15 -22z"/>
<path d="M2280 450 c12 -8 16 -44 18 -201 2 -111 -1 -203 -7 -220 l-10 -29
118 0 c99 0 120 3 125 16 12 30 6 34 -24 19 -21 -11 -51 -15 -93 -13 l-62 3
-3 198 c-1 125 1 205 8 217 10 19 7 20 -37 20 -34 0 -44 -3 -33 -10z"/>
<path d="M2680 450 c12 -8 16 -44 18 -201 2 -111 -1 -203 -7 -220 l-10 -29
118 0 c99 0 120 3 125 16 12 30 6 34 -24 19 -21 -11 -51 -15 -93 -13 l-62 3
-3 198 c-1 125 1 205 8 217 10 19 7 20 -37 20 -34 0 -44 -3 -33 -10z"/>
<path d="M3186 445 c-87 -31 -141 -121 -140 -231 1 -76 32 -136 92 -178 76
-53 211 -48 291 12 48 36 81 112 81 188 0 135 -90 225 -224 224 -33 -1 -78 -7
-100 -15z m187 -38 c19 -15 45 -43 57 -62 27 -44 38 -146 20 -199 -52 -157
-245 -171 -325 -23 -24 43 -27 57 -24 126 5 90 33 145 90 175 51 25 137 17
182 -17z"/>
<path d="M3653 428 c13 -18 50 -78 81 -134 55 -98 56 -102 56 -178 0 -42 -5
-86 -10 -97 -10 -17 -7 -19 27 -19 l38 0 -3 100 -3 100 52 93 c28 50 65 109
81 130 l29 37 -39 0 c-36 0 -39 -2 -35 -24 3 -15 -12 -53 -47 -115 -29 -50
-54 -91 -55 -91 -10 0 -115 205 -111 216 4 11 -6 14 -40 14 l-45 0 24 -32z"/>
<path d="M4130 451 c12 -8 16 -45 18 -195 2 -105 -1 -201 -7 -222 l-10 -37
107 5 c128 7 179 25 227 80 95 112 54 300 -77 353 -49 20 -285 35 -258 16z
m241 -42 c129 -71 126 -298 -4 -366 -19 -9 -59 -16 -101 -17 l-71 -1 -3 195
c-1 107 0 201 3 209 9 22 123 9 176 -20z"/>
</g>
</svg>
